<mxfile host="app.diagrams.net" modified="2020-12-04T16:17:03.176Z" agent="5.0 (Windows)" etag="GvSZfqysSQscC0RmMxy3" version="13.10.9" type="github">
  <diagram name="Page-1" id="e7e014a7-5840-1c2e-5031-d8a46d1fe8dd">
    <mxGraphModel dx="1022" dy="432" grid="1" gridSize="10" guides="1" tooltips="1" connect="1" arrows="1" fold="1" page="1" pageScale="1" pageWidth="1169" pageHeight="826" background="#ffffff" math="0" shadow="0">
      <root>
        <mxCell id="0" />
        <mxCell id="1" parent="0" />
        <mxCell id="2" value="User" style="swimlane;whiteSpace=wrap;fillColor=#CDA2BE;" parent="1" vertex="1">
          <mxGeometry x="164.5" y="128" width="280" height="982" as="geometry" />
        </mxCell>
        <mxCell id="5" value="" style="ellipse;shape=startState;fillColor=#000000;strokeColor=#ff0000;" parent="2" vertex="1">
          <mxGeometry x="100" y="40" width="30" height="30" as="geometry" />
        </mxCell>
        <mxCell id="6" value="" style="edgeStyle=elbowEdgeStyle;elbow=horizontal;verticalAlign=bottom;endArrow=open;endSize=8;strokeColor=#FF0000;endFill=1;rounded=0" parent="2" source="5" target="7" edge="1">
          <mxGeometry x="100" y="40" as="geometry">
            <mxPoint x="115" y="110" as="targetPoint" />
          </mxGeometry>
        </mxCell>
        <mxCell id="7" value="Membuka aplikasi&#xa;sikasi&#xa;" style="" parent="2" vertex="1">
          <mxGeometry x="60" y="110" width="110" height="50" as="geometry" />
        </mxCell>
        <mxCell id="hcvOqTNpgSSIKmtwzgqO-47" value="memilih menu soal&#xa;karakter siswa&#xa;" style="" vertex="1" parent="2">
          <mxGeometry x="60" y="202" width="144.5" height="50" as="geometry" />
        </mxCell>
        <mxCell id="hcvOqTNpgSSIKmtwzgqO-56" value="menulis link soal yang akan&#xa;dibagikan kpd siswa&#xa;" style="" vertex="1" parent="2">
          <mxGeometry x="50" y="427" width="154.5" height="38" as="geometry" />
        </mxCell>
        <mxCell id="hcvOqTNpgSSIKmtwzgqO-67" value="klik tambahkan soal&#xa;" style="" vertex="1" parent="2">
          <mxGeometry x="55" y="368" width="154.5" height="38" as="geometry" />
        </mxCell>
        <mxCell id="hcvOqTNpgSSIKmtwzgqO-85" value="klik tombol buat" style="" vertex="1" parent="2">
          <mxGeometry x="60" y="626" width="154.5" height="38" as="geometry" />
        </mxCell>
        <mxCell id="3" value="Sistem" style="swimlane;whiteSpace=wrap;fillColor=#CDA2BE;" parent="1" vertex="1">
          <mxGeometry x="444.5" y="128" width="335.5" height="982" as="geometry" />
        </mxCell>
        <mxCell id="hcvOqTNpgSSIKmtwzgqO-61" value="" style="rounded=0;whiteSpace=wrap;html=1;fillColor=#E6D0DE;" vertex="1" parent="3">
          <mxGeometry x="97.75" y="418" width="132.25" height="98" as="geometry" />
        </mxCell>
        <mxCell id="13" value="" style="ellipse;shape=startState;fillColor=#000000;strokeColor=#ff0000;" parent="3" vertex="1">
          <mxGeometry x="125.5" y="40" width="30" height="30" as="geometry" />
        </mxCell>
        <mxCell id="14" value="" style="edgeStyle=elbowEdgeStyle;elbow=horizontal;verticalAlign=bottom;endArrow=open;endSize=8;strokeColor=#FF0000;endFill=1;rounded=0" parent="3" source="13" target="15" edge="1">
          <mxGeometry x="105.5" y="20" as="geometry">
            <mxPoint x="120.5" y="90" as="targetPoint" />
          </mxGeometry>
        </mxCell>
        <mxCell id="15" value="request" style="" parent="3" vertex="1">
          <mxGeometry x="85.5" y="110" width="110" height="50" as="geometry" />
        </mxCell>
        <mxCell id="hcvOqTNpgSSIKmtwzgqO-45" value="menampilkan halaman&#xa;home sikasi&#xa;" style="" vertex="1" parent="3">
          <mxGeometry x="85.5" y="202" width="144.5" height="50" as="geometry" />
        </mxCell>
        <mxCell id="hcvOqTNpgSSIKmtwzgqO-49" value="menampilkan halaman soal &#xa;karakter siswa" style="" vertex="1" parent="3">
          <mxGeometry x="85.5" y="285" width="154.5" height="50" as="geometry" />
        </mxCell>
        <mxCell id="hcvOqTNpgSSIKmtwzgqO-53" value="menampilkan kolom&#xa;untuk penulisan soal" style="" vertex="1" parent="3">
          <mxGeometry x="85.5" y="368" width="154.5" height="50" as="geometry" />
        </mxCell>
        <mxCell id="hcvOqTNpgSSIKmtwzgqO-64" value="" style="group" vertex="1" connectable="0" parent="3">
          <mxGeometry x="103.88" y="427" width="120" height="80" as="geometry" />
        </mxCell>
        <mxCell id="hcvOqTNpgSSIKmtwzgqO-58" value="buat" style="rounded=0;whiteSpace=wrap;html=1;" vertex="1" parent="hcvOqTNpgSSIKmtwzgqO-64">
          <mxGeometry y="30" width="120" height="20" as="geometry" />
        </mxCell>
        <mxCell id="hcvOqTNpgSSIKmtwzgqO-59" value="batal" style="rounded=0;whiteSpace=wrap;html=1;" vertex="1" parent="hcvOqTNpgSSIKmtwzgqO-64">
          <mxGeometry y="60" width="120" height="20" as="geometry" />
        </mxCell>
        <mxCell id="hcvOqTNpgSSIKmtwzgqO-57" value="kolom penulisan" style="rounded=0;whiteSpace=wrap;html=1;" vertex="1" parent="hcvOqTNpgSSIKmtwzgqO-64">
          <mxGeometry width="120" height="20" as="geometry" />
        </mxCell>
        <mxCell id="hcvOqTNpgSSIKmtwzgqO-80" value="batal" style="edgeStyle=orthogonalEdgeStyle;rounded=0;orthogonalLoop=1;jettySize=auto;html=1;strokeColor=#FF0000;" edge="1" parent="3" source="hcvOqTNpgSSIKmtwzgqO-72" target="hcvOqTNpgSSIKmtwzgqO-59">
          <mxGeometry relative="1" as="geometry">
            <Array as="points">
              <mxPoint x="164" y="542" />
              <mxPoint x="164" y="542" />
            </Array>
          </mxGeometry>
        </mxCell>
        <mxCell id="hcvOqTNpgSSIKmtwzgqO-72" value="bagikan kepada siswa?" style="rhombus;whiteSpace=wrap;html=1;fillColor=#FFFFFF;" vertex="1" parent="3">
          <mxGeometry x="121.63" y="562" width="102.25" height="92" as="geometry" />
        </mxCell>
        <mxCell id="hcvOqTNpgSSIKmtwzgqO-89" style="edgeStyle=orthogonalEdgeStyle;rounded=0;orthogonalLoop=1;jettySize=auto;html=1;entryX=1;entryY=0.5;entryDx=0;entryDy=0;strokeColor=#FF0000;" edge="1" parent="3" source="hcvOqTNpgSSIKmtwzgqO-59" target="hcvOqTNpgSSIKmtwzgqO-49">
          <mxGeometry relative="1" as="geometry">
            <Array as="points">
              <mxPoint x="260" y="497" />
              <mxPoint x="260" y="310" />
            </Array>
          </mxGeometry>
        </mxCell>
        <mxCell id="hcvOqTNpgSSIKmtwzgqO-90" value="request" style="rounded=0;whiteSpace=wrap;html=1;fillColor=#FFFFFF;" vertex="1" parent="3">
          <mxGeometry x="102.75" y="732" width="120" height="38" as="geometry" />
        </mxCell>
        <mxCell id="hcvOqTNpgSSIKmtwzgqO-99" style="edgeStyle=orthogonalEdgeStyle;rounded=0;orthogonalLoop=1;jettySize=auto;html=1;strokeColor=#FF0000;" edge="1" parent="3" source="hcvOqTNpgSSIKmtwzgqO-94" target="38">
          <mxGeometry relative="1" as="geometry" />
        </mxCell>
        <mxCell id="hcvOqTNpgSSIKmtwzgqO-94" value="menampilkan soal yang telah dibuat pada halaman soal" style="rounded=0;whiteSpace=wrap;html=1;fillColor=#FFFFFF;" vertex="1" parent="3">
          <mxGeometry x="103.88" y="812" width="120" height="48" as="geometry" />
        </mxCell>
        <mxCell id="38" value="" style="ellipse;shape=endState;fillColor=#000000;strokeColor=#ff0000" parent="3" vertex="1">
          <mxGeometry x="148.88" y="932" width="30" height="30" as="geometry" />
        </mxCell>
        <mxCell id="4" value="Database" style="swimlane;whiteSpace=wrap;startSize=23;fillColor=#CDA2BE;" parent="1" vertex="1">
          <mxGeometry x="780" y="128" width="280" height="982" as="geometry" />
        </mxCell>
        <mxCell id="hcvOqTNpgSSIKmtwzgqO-42" value="eksekusi" style="" vertex="1" parent="4">
          <mxGeometry x="90" y="110" width="110" height="50" as="geometry" />
        </mxCell>
        <mxCell id="hcvOqTNpgSSIKmtwzgqO-92" value="eksekusi" style="rounded=0;whiteSpace=wrap;html=1;fillColor=#FFFFFF;" vertex="1" parent="4">
          <mxGeometry x="80" y="732" width="120" height="38" as="geometry" />
        </mxCell>
        <mxCell id="hcvOqTNpgSSIKmtwzgqO-41" value="&lt;font style=&quot;font-size: 18px&quot;&gt;&lt;b&gt;Diagram Activity pengumpulan jawaban soal&lt;br&gt;&lt;/b&gt;&lt;/font&gt;" style="text;html=1;strokeColor=none;fillColor=none;align=center;verticalAlign=middle;whiteSpace=wrap;rounded=0;" vertex="1" parent="1">
          <mxGeometry x="435" y="90" width="455" height="20" as="geometry" />
        </mxCell>
        <mxCell id="hcvOqTNpgSSIKmtwzgqO-43" style="edgeStyle=orthogonalEdgeStyle;rounded=0;orthogonalLoop=1;jettySize=auto;html=1;strokeColor=#FF0000;" edge="1" parent="1" source="7" target="15">
          <mxGeometry relative="1" as="geometry" />
        </mxCell>
        <mxCell id="hcvOqTNpgSSIKmtwzgqO-44" style="edgeStyle=orthogonalEdgeStyle;rounded=0;orthogonalLoop=1;jettySize=auto;html=1;strokeColor=#FF0000;" edge="1" parent="1" source="15" target="hcvOqTNpgSSIKmtwzgqO-42">
          <mxGeometry relative="1" as="geometry" />
        </mxCell>
        <mxCell id="hcvOqTNpgSSIKmtwzgqO-46" style="edgeStyle=orthogonalEdgeStyle;rounded=0;orthogonalLoop=1;jettySize=auto;html=1;entryX=0.5;entryY=0;entryDx=0;entryDy=0;strokeColor=#FF0000;" edge="1" parent="1" source="hcvOqTNpgSSIKmtwzgqO-42" target="hcvOqTNpgSSIKmtwzgqO-45">
          <mxGeometry relative="1" as="geometry">
            <Array as="points">
              <mxPoint x="925" y="310" />
              <mxPoint x="602" y="310" />
            </Array>
          </mxGeometry>
        </mxCell>
        <mxCell id="hcvOqTNpgSSIKmtwzgqO-48" style="edgeStyle=orthogonalEdgeStyle;rounded=0;orthogonalLoop=1;jettySize=auto;html=1;strokeColor=#FF0000;" edge="1" parent="1" source="hcvOqTNpgSSIKmtwzgqO-45" target="hcvOqTNpgSSIKmtwzgqO-47">
          <mxGeometry relative="1" as="geometry" />
        </mxCell>
        <mxCell id="hcvOqTNpgSSIKmtwzgqO-50" style="edgeStyle=orthogonalEdgeStyle;rounded=0;orthogonalLoop=1;jettySize=auto;html=1;strokeColor=#FF0000;" edge="1" parent="1" source="hcvOqTNpgSSIKmtwzgqO-47" target="hcvOqTNpgSSIKmtwzgqO-49">
          <mxGeometry relative="1" as="geometry">
            <Array as="points">
              <mxPoint x="297" y="438" />
            </Array>
          </mxGeometry>
        </mxCell>
        <mxCell id="hcvOqTNpgSSIKmtwzgqO-66" style="edgeStyle=orthogonalEdgeStyle;rounded=0;orthogonalLoop=1;jettySize=auto;html=1;entryX=1;entryY=0.25;entryDx=0;entryDy=0;strokeColor=#FF0000;" edge="1" parent="1" source="hcvOqTNpgSSIKmtwzgqO-57" target="hcvOqTNpgSSIKmtwzgqO-56">
          <mxGeometry relative="1" as="geometry" />
        </mxCell>
        <mxCell id="hcvOqTNpgSSIKmtwzgqO-69" style="edgeStyle=orthogonalEdgeStyle;rounded=0;orthogonalLoop=1;jettySize=auto;html=1;strokeColor=#FF0000;" edge="1" parent="1" source="hcvOqTNpgSSIKmtwzgqO-49">
          <mxGeometry relative="1" as="geometry">
            <mxPoint x="310" y="496" as="targetPoint" />
            <Array as="points">
              <mxPoint x="607" y="480" />
              <mxPoint x="310" y="480" />
              <mxPoint x="310" y="496" />
            </Array>
          </mxGeometry>
        </mxCell>
        <mxCell id="hcvOqTNpgSSIKmtwzgqO-70" style="edgeStyle=orthogonalEdgeStyle;rounded=0;orthogonalLoop=1;jettySize=auto;html=1;strokeColor=#FF0000;" edge="1" parent="1" source="hcvOqTNpgSSIKmtwzgqO-67" target="hcvOqTNpgSSIKmtwzgqO-53">
          <mxGeometry relative="1" as="geometry">
            <Array as="points">
              <mxPoint x="420" y="521" />
              <mxPoint x="420" y="521" />
            </Array>
          </mxGeometry>
        </mxCell>
        <mxCell id="hcvOqTNpgSSIKmtwzgqO-73" style="edgeStyle=orthogonalEdgeStyle;rounded=0;orthogonalLoop=1;jettySize=auto;html=1;entryX=0;entryY=0.5;entryDx=0;entryDy=0;strokeColor=#FF0000;" edge="1" parent="1" source="hcvOqTNpgSSIKmtwzgqO-56" target="hcvOqTNpgSSIKmtwzgqO-72">
          <mxGeometry relative="1" as="geometry">
            <Array as="points">
              <mxPoint x="297" y="736" />
            </Array>
          </mxGeometry>
        </mxCell>
        <mxCell id="hcvOqTNpgSSIKmtwzgqO-86" value="yes" style="edgeStyle=orthogonalEdgeStyle;rounded=0;orthogonalLoop=1;jettySize=auto;html=1;entryX=1;entryY=0.5;entryDx=0;entryDy=0;strokeColor=#FF0000;" edge="1" parent="1" source="hcvOqTNpgSSIKmtwzgqO-72" target="hcvOqTNpgSSIKmtwzgqO-85">
          <mxGeometry relative="1" as="geometry">
            <Array as="points">
              <mxPoint x="614" y="779" />
            </Array>
          </mxGeometry>
        </mxCell>
        <mxCell id="hcvOqTNpgSSIKmtwzgqO-87" style="edgeStyle=orthogonalEdgeStyle;rounded=0;orthogonalLoop=1;jettySize=auto;html=1;entryX=0;entryY=0.25;entryDx=0;entryDy=0;strokeColor=#CDA2BE;" edge="1" parent="1" source="hcvOqTNpgSSIKmtwzgqO-85" target="hcvOqTNpgSSIKmtwzgqO-58">
          <mxGeometry relative="1" as="geometry">
            <Array as="points">
              <mxPoint x="400" y="760" />
              <mxPoint x="400" y="590" />
            </Array>
          </mxGeometry>
        </mxCell>
        <mxCell id="hcvOqTNpgSSIKmtwzgqO-91" style="edgeStyle=orthogonalEdgeStyle;rounded=0;orthogonalLoop=1;jettySize=auto;html=1;strokeColor=#FF0000;" edge="1" parent="1" source="hcvOqTNpgSSIKmtwzgqO-85" target="hcvOqTNpgSSIKmtwzgqO-90">
          <mxGeometry relative="1" as="geometry">
            <Array as="points">
              <mxPoint x="302" y="879" />
            </Array>
          </mxGeometry>
        </mxCell>
        <mxCell id="hcvOqTNpgSSIKmtwzgqO-93" style="edgeStyle=orthogonalEdgeStyle;rounded=0;orthogonalLoop=1;jettySize=auto;html=1;strokeColor=#FF0000;" edge="1" parent="1" source="hcvOqTNpgSSIKmtwzgqO-90" target="hcvOqTNpgSSIKmtwzgqO-92">
          <mxGeometry relative="1" as="geometry" />
        </mxCell>
        <mxCell id="hcvOqTNpgSSIKmtwzgqO-95" style="edgeStyle=orthogonalEdgeStyle;rounded=0;orthogonalLoop=1;jettySize=auto;html=1;entryX=0.5;entryY=0;entryDx=0;entryDy=0;strokeColor=#FF0000;" edge="1" parent="1" source="hcvOqTNpgSSIKmtwzgqO-92" target="hcvOqTNpgSSIKmtwzgqO-94">
          <mxGeometry relative="1" as="geometry">
            <Array as="points">
              <mxPoint x="920" y="920" />
              <mxPoint x="608" y="920" />
            </Array>
          </mxGeometry>
        </mxCell>
      </root>
    </mxGraphModel>
  </diagram>
</mxfile>
